# AST/ASF file generated using VICON BodyLanguage
# -----------------------------------------------
:version 1.10
:name VICON
:units
  mass 1.0
  length 0.45
  angle deg
:documentation
   .ast/.asf automatically generated from VICON data using
   VICON BodyBuilder and BodyLanguage model FoxedUp or BRILLIANT.MOD
:root
   order TX TY TZ RX RY RZ
   axis XYZ
   position 0 0 0  
   orientation 0 0 0 
:bonedata
  begin
     id 1 
     name lhipjoint
     direction 0.645893 -0.654526 0.392961 
     length 2.38111 
     axis 0 0 0  XYZ
  end
  begin
     id 2 
     name lfemur
     direction 0.34202 -0.939693 0  
     length 6.6822  
     axis 0 0 20  XYZ
    dof rx ry rz
    limits (-160.0 20.0)
           (-70.0 70.0)
           (-60.0 70.0)
  end
  begin
     id 3 
     name ltibia
     direction 0.34202 -0.939693 0   
     length 6.93904   
     axis 0 0 20   XYZ
    dof rx
    limits (-10.0 170.0)
  end
  begin
     id 4 
     name lfoot
     direction 0.0694967 -0.190941 0.979138   
     length 2.13616   
     axis -90 7.62852e-016 20   XYZ
    dof rx rz
    limits (-45.0 90.0)
           (-70.0 20.0)
  end
  begin
     id 5 
     name ltoes
     direction 1.535e-011 -4.2202e-011 1   
     length 1.07536   
     axis -90 7.62852e-016 20   XYZ
    dof rx
    limits (-90.0 20.0)
  end
  begin
     id 6 
     name rhipjoint
     direction -0.700219 -0.612087 0.367481   
     length 2.54621  
     axis 0 0 0  XYZ 
  end
  begin
     id 7 
     name rfemur
     direction -0.34202 -0.939693 0   
     length 6.55353   
     axis 0 0 -20   XYZ
    dof rx ry rz
    limits (-160.0 20.0)
           (-70.0 70.0)
           (-70.0 60.0)
  end
  begin
     id 8 
     name rtibia
     direction -0.34202 -0.939693 0   
     length 6.8736   
     axis 0 0 -20   XYZ
    dof rx
    limits (-10.0 170.0)
 end
 begin
     id 9 
     name rfoot
     direction -0.0679995 -0.186827 0.980037   
     length 2.1218  
     axis -90 -7.62852e-016 -20   XYZ
    dof rx rz
    limits (-45.0 90.0)
           (-20.0 70.0)
  end
  begin
     id 10 
     name rtoes
     direction -1.53589e-011 -4.21772e-011 1   
     length 1.06864   
     axis -90 -7.62852e-016 -20   XYZ
    dof rx
    limits (-90.0 20.0)
  end
  begin
     id 11 
     name lowerback
     direction -0.0416607 0.996347 -0.0745409   
     length 2.12205   
     axis 0 0 0   XYZ
    dof rx ry rz
    limits (-20.0 45.0)
           (-30.0 30.0)
           (-30.0 30.0)
  end
  begin
     id 12 
     name upperback
     direction -0.000153993 0.999276 -0.0380568   
     length 2.12759   
     axis 0 0 0   XYZ
    dof rx ry rz
    limits (-20.0 45.0)
           (-30.0 30.0)
           (-30.0 30.0)
  end
  begin
     id 13 
     name thorax
     direction 0.0187671 0.999821 -0.00241421   
     length 2.13704   
     axis 0 0 0   XYZ
    dof rx ry rz
    limits (-20.0 45.0)
           (-30.0 30.0)
           (-30.0 30.0)
  end
  begin
     id 14 
     name lowerneck
     direction 0.0268157 0.964865 0.261374   
     length 1.65253   
     axis 0 0 0   XYZ
    dof rx ry rz
    limits (-20.0 45.0)
           (-30.0 30.0)
           (-30.0 30.0)
  end
  begin
     id 15 
     name upperneck
     direction 0.00263774 0.939908 -0.341418   
     length 1.72375   
     axis 0 0 0   XYZ
    dof rx ry rz
    limits (-20.0 45.0)
           (-30.0 30.0)
           (-30.0 30.0)
  end
  begin
     id 16
     name head
     direction -0.00526001 0.989001 -0.147818  
     length 1.74878  
     axis 0 0 0   XYZ
    dof rx ry rz
    limits (-20.0 45.0)
           (-30.0 30.0)
           (-30.0 30.0)
  end
  begin
     id 17 
     name lclavicle
     direction 0.881214 0.461162 -0.103884  
     length 3.25108  
     axis 0 0 0   XYZ
    dof ry rz
    limits (-20.0 10.0)
           (0.0 20.0)
  end
  begin
     id 18 
     name lhumerus
     direction 1 -4.4899e-011 3.38092e-027   
     length 4.87408   
     axis 180 -30 -90   XYZ
    dof rx ry rz
    limits (-60.0 90.0)
           (-90.0 90.0)
           (-90.0 90.0)
  end
  begin
     id 19
     name lradius
     direction 1 -4.48931e-011 9.96288e-027   
     length 2.76729   
     axis 180 -30 -90   XYZ
    dof rx
    limits (-10.0 170.0)
  end
  begin
     id 20
     name lwrist
     direction 1 -4.4896e-011 1.50617e-026   
     length 1.38364   
     axis -9.31234e-015 90 90   XYZ
    dof ry
    limits (-180.0 0.0)
 end
  begin
     id 21 
     name lhand
     direction 1 -4.49038e-011 3.01286e-026   
     length 0.98922   
     axis -1.92217e-014 90 90   XYZ
    dof rx rz
    limits (-90.0 90.0)
           (-45.0 45.0)
  end
  begin
     id 22 
     name lfingers
     direction 1 -4.49051e-011 6.02588e-026   
     length 0.797535   
     axis -3.84436e-014 90 90   XYZ
    dof rx
    limits (0.0 90.0)
  end
  begin
     id 23
     name lthumb
     direction 0.707107 -6.34901e-011 0.707107   
     length 1.14511   
     axis -90 45 2.19363e-014   XYZ
    dof rx rz
    limits (-45.0 45.0)
           (-45.0 45.0)
  end
  begin
     id 24 
     name rclavicle
     direction -0.893894 0.441652 -0.0767889   
     length 3.29361  
     axis 0 0 0   XYZ 
    dof ry rz
    limits (-10.0 20.0)
           (-20.0 0.0)
  end
  begin
     id 25 
     name rhumerus
     direction -1 -4.48945e-011 8.0491e-028  
     length 4.71404   
     axis 180 30 90   XYZ
    dof rx ry rz
    limits (-90.0 60.0)
           (-90.0 90.0)
           (-90.0 90.0)
  end
  begin
     id 26 
     name rradius
     direction -1 -4.48986e-011 9.27795e-027   
     length 2.83468   
     axis 180 30 90   XYZ
    dof rx
    limits (-10.0 170.0)
  end
  begin
     id 27 
     name rwrist
     direction -1 -4.49029e-011 1.5064e-026   
     length 1.41734   
     axis -9.31234e-015 -90 -90   XYZ
    dof ry
    limits (-180.0 0.0)
  end
  begin
     id 28
     name rhand
     direction -1 -4.48857e-011 3.01165e-026   
     length 0.868195   
     axis -1.92217e-014 -90 -90   XYZ
    dof rx rz
    limits (-90.0 90.0)
           (-45.0 45.0)
  end
  begin
     id 29
     name rfingers
     direction -1 -4.49048e-011 6.02585e-026   
     length 0.699961   
     axis -3.84436e-014 -90 -90   XYZ
    dof rx
    limits (0.0 90.0)
  end
  begin
     id 30
     name rthumb
     direction -0.707107 -6.34854e-011 0.707107   
     length 1.00501   
     axis -90 -45 -2.19363e-014   XYZ
    dof rx rz
    limits (-45.0 45.0)
           (-45.0 45.0)
  end
:hierarchy
  begin
    root lhipjoint rhipjoint lowerback
    lhipjoint lfemur
    lfemur ltibia
    ltibia lfoot
    lfoot ltoes
    rhipjoint rfemur
    rfemur rtibia
    rtibia rfoot
    rfoot rtoes
    lowerback upperback
    upperback thorax
    thorax lowerneck lclavicle rclavicle
    lowerneck upperneck
    upperneck head
    lclavicle lhumerus
    lhumerus lradius
    lradius lwrist
    lwrist lhand lthumb
    lhand lfingers
    rclavicle rhumerus
    rhumerus rradius
    rradius rwrist
    rwrist rhand rthumb
    rhand rfingers
  end

#!OML:ASF H:\ManfredObstacles\Project 1\Capture day 2\Session 1\male.ASF
:FULLY-SPECIFIED
:DEGREES
96
root 13.0371 16.4113 -3.47735 -173.486 -19.9865 187.965
lowerback -3.93411 4.68644 -0.559323
upperback -0.902661 6.25917 -0.497438
thorax 1.26373 3.11808 0.110301
lowerneck -32.6422 3.04855 4.9914
upperneck 41.2175 0.891106 -2.63553
head 23.772 0.154877 -2.45835
rclavicle 6.36111e-014 1.11319e-014
rhumerus -39.8826 18.0508 -90.3347
rradius 86.3185
rwrist 9.30505
rhand -6.35707 -0.567844
rfingers 7.12502
rthumb 19.4891 -29.6111
lclavicle 6.36111e-014 1.11319e-014
lhumerus -69.0547 -23.8322 97.6098
lradius 102.463
lwrist -17.8612
lhand -12.8521 4.74027
lfingers 7.12502
lthumb 13.2358 34.3001
rfemur 8.33419 -3.13134 20.1526
rtibia 44.6605
rfoot 26.6353 -13.729
rtoes -13.7678
lfemur -36.6953 6.25319 -29.6515
ltibia 26.6872
lfoot 20.8203 5.03974
ltoes -2.18563
97
root 12.9343 16.2816 -3.77787 -173.767 -20.6525 187.886
lowerback -3.96538 4.55345 -0.777563
upperback -0.845143 6.09246 -0.515426
thorax 1.32015 3.03395 0.20897
lowerneck -32.5777 3.07843 5.00706
upperneck 41.305 0.829832 -2.46884
head 23.8208 0.157732 -2.39027
rclavicle -1.37161e-014 3.33958e-014
rhumerus -40.6757 17.066 -90.1907
rradius 85.8866
rwrist 9.65378
rhand -6.35969 -0.589948
rfingers 7.12502
rthumb 19.4866 -29.6335
lclavicle -1.37161e-014 3.33958e-014
lhumerus -68.451 -23.7873 97.7138
lradius 102.143
lwrist -17.8801
lhand -12.9706 4.89589
lfingers 7.12502
lthumb 13.1215 34.4631
rfemur 7.5576 -3.85686 19.5722
rtibia 47.8362
rfoot 25.2278 -14.5799
rtoes -13.3663
lfemur -35.7733 6.24414 -30.2806
ltibia 27.8972
lfoot 18.1334 4.35449
ltoes -0.883051
98
root 12.8305 16.1472 -4.07338 -174.036 -21.3086 187.805
lowerback -3.95732 4.41363 -0.972231
upperback -0.783972 5.91583 -0.548716
thorax 1.36364 2.9449 0.275573
lowerneck -32.5336 3.09895 5.01599
upperneck 41.3711 0.764162 -2.30694
head 23.8576 0.158206 -2.32314
rclavicle 6.16232e-015 -3.10104e-014
rhumerus -41.4915 16.0647 -90.0656
rradius 85.4965
rwrist 10.0285
rhand -6.30687 -0.571704
rfingers 7.12502
rthumb 19.5373 -29.6101
lclavicle 6.16232e-015 -3.10104e-014
lhumerus -67.7557 -23.7335 97.7944
lradius 101.754
lwrist -17.8988
lhand -13.1373 4.97917
lfingers 7.12502
lthumb 12.9608 34.5566
rfemur 6.71198 -4.54982 18.9722
rtibia 50.9967
rfoot 23.8199 -15.5526
rtoes -12.8826
lfemur -34.8893 5.88751 -30.736
ltibia 29.4798
lfoot 14.8231 4.85981
ltoes 0.385833
99
root 12.7255 16.009 -4.36076 -174.311 -21.9516 187.723
lowerback -3.86902 4.26937 -1.12151
upperback -0.697108 5.73139 -0.58802
thorax 1.39487 2.85234 0.305603
lowerneck -32.5541 3.10639 4.99506
upperneck 41.3777 0.72467 -2.17012
head 23.8655 0.162688 -2.25223
rclavicle 9.95911e-014 1.19271e-014
rhumerus -42.2895 15.0307 -89.9314
rradius 85.1393
rwrist 10.4185
rhand -6.26304 -0.55309
rfingers 7.12502
rthumb 19.5795 -29.5872
lclavicle 9.95911e-014 1.19271e-014
lhumerus -66.9051 -23.6507 97.852
lradius 101.273
lwrist -17.9287
lhand -13.3203 4.98665
lfingers 7.12502
lthumb 12.7844 34.5752
rfemur 5.78512 -5.19062 18.3577
rtibia 54.157
rfoot 22.4356 -16.6094
rtoes -12.3693
lfemur -34.0506 5.2487 -31.0777
ltibia 31.3366
lfoot 11.3943 6.5149
ltoes 1.9591
100
root 12.6192 15.8687 -4.63783 -174.617 -22.5879 187.641
lowerback -3.66144 4.11281 -1.21619
upperback -0.582208 5.5273 -0.625872
thorax 1.39424 2.75066 0.29844
lowerneck -32.5831 3.12863 5.03217
upperneck 41.296 0.741714 -2.12663
head 23.8027 0.186882 -2.22189
rclavicle 5.26779e-015 2.46493e-014
rhumerus -43.0714 13.9909 -89.782
rradius 84.7909
rwrist 10.8188
rhand -6.24754 -0.530901
rfingers 7.12502
rthumb 19.5944 -29.5635
lclavicle 5.26779e-015 2.46493e-014
lhumerus -65.8726 -23.5159 97.89
lradius 100.662
lwrist -17.9801
lhand -13.512 4.96061
lfingers 7.12502
lthumb 12.5997 34.5606
rfemur 4.76687 -5.77382 17.7319
rtibia 57.3303
rfoot 21.1044 -17.6702
rtoes -11.8017
lfemur -33.2362 4.39774 -31.3436
ltibia 33.3341
lfoot 8.2368 9.0168
ltoes 3.66518
101
root 12.5129 15.7282 -4.9043 -174.98 -23.212 187.551
lowerback -3.29839 3.94625 -1.26621
upperback -0.445926 5.30583 -0.674387
thorax 1.33429 2.64106 0.245107
lowerneck -32.5915 3.16199 5.1121
upperneck 41.1331 0.801001 -2.14645
head 23.6644 0.226209 -2.21689
rclavicle 1.20861e-013 -1.74931e-014
rhumerus -43.8722 12.9375 -89.6517
rradius 84.4366
rwrist 11.2033
rhand -6.31476 -0.573493
rfingers 7.12502
rthumb 19.5298 -29.6126
lclavicle 1.20861e-013 -1.74931e-014
lhumerus -64.6938 -23.3535 97.9062
lradius 99.9162
lwrist -18.0254
lhand -13.7166 4.94297
lfingers 7.12502
lthumb 12.4023 34.555
rfemur 3.6614 -6.28097 17.0933
rtibia 60.5275
rfoot 19.7959 -18.7207
rtoes -11.1174
lfemur -32.3952 3.47133 -31.5801
ltibia 35.3171
lfoot 5.45211 11.8544
ltoes 6.12264
102
root 12.4082 15.5882 -5.16083 -175.416 -23.8258 187.419
lowerback -2.77414 3.76544 -1.3409
upperback -0.268336 5.06298 -0.71301
thorax 1.22359 2.52088 0.206381
lowerneck -32.573 3.20202 5.18799
upperneck 40.9114 0.907657 -2.20781
head 23.4697 0.276219 -2.21638
rclavicle -6.36111e-015 4.45278e-014
rhumerus -44.7062 11.8881 -89.4934
rradius 84.0899
rwrist 11.5267
rhand -6.40804 -0.678013
rfingers 7.12502
rthumb 19.4401 -29.7262
lclavicle -6.36111e-015 4.45278e-014
lhumerus -63.3776 -23.1543 97.942
lradius 99.054
lwrist -18.0924
lhand -13.932 5.01874
lfingers 7.12502
lthumb 12.1946 34.6433
rfemur 2.49436 -6.73237 16.4002
rtibia 63.7486
rfoot 18.5204 -19.6524
rtoes -10.4939
lfemur -31.4458 2.6362 -31.8603
ltibia 37.1556
lfoot 2.84837 14.5533
ltoes 8.35366
103
root 12.3069 15.4512 -5.41047 -175.908 -24.4138 187.224
lowerback -2.1287 3.58593 -1.5004
upperback -0.0533876 4.81972 -0.747278
thorax 1.07599 2.39958 0.214818
lowerneck -32.5375 3.25081 5.26508
upperneck 40.6745 1.03483 -2.28096
head 23.2615 0.331792 -2.21591
rclavicle 1.05555e-013 2.06736e-014
rhumerus -45.5964 10.8332 -89.2942
rradius 83.7499
rwrist 11.7718
rhand -6.50838 -0.852415
rfingers 7.12502
rthumb 19.3436 -29.9103
lclavicle 1.05555e-013 2.06736e-014
lhumerus -61.9821 -22.9691 97.9945
lradius 98.1278
lwrist -18.1984
lhand -14.1452 5.15176
lfingers 7.12502
lthumb 11.9891 34.7884
rfemur 1.25563 -7.10785 15.6508
rtibia 66.9832
rfoot 17.2223 -20.4688
rtoes -9.85893
lfemur -30.3506 1.97402 -32.1894
ltibia 38.7591
lfoot 0.410867 16.9199
ltoes 10.2072
104
root 12.2099 15.3192 -5.65455 -176.376 -24.9705 186.912
lowerback -1.42765 3.41218 -1.81709
upperback 0.182896 4.58112 -0.786507
thorax 0.907803 2.27863 0.305896
lowerneck -32.5063 3.29715 5.28029
upperneck 40.4701 1.16714 -2.31335
head 23.0848 0.383357 -2.18247
rclavicle -9.74045e-015 3.49861e-014
rhumerus -46.5463 9.80037 -89.0344
rradius 83.4239
rwrist 11.9252
rhand -6.58045 -1.08717
rfingers 7.12502
rthumb 19.2743 -30.152
lclavicle -9.74045e-015 3.49861e-014
lhumerus -60.5514 -22.8015 98.0742
lradius 97.1862
lwrist -18.4155
lhand -14.3684 5.35132
lfingers 7.12502
lthumb 11.7739 35.0004
rfemur -0.110768 -7.41235 14.8085
rtibia 70.2129
rfoot 15.916 -21.1042
rtoes -9.47152
lfemur -29.1186 1.48874 -32.6118
ltibia 40.0989
lfoot -1.93238 18.9345
ltoes 11.6717
105
root 12.1165 15.1956 -5.89449 -176.708 -25.4355 186.473
lowerback -0.796317 3.27084 -2.31532
upperback 0.417575 4.38215 -0.841867
thorax 0.765766 2.17473 0.489704
lowerneck -32.3058 3.34251 5.31891
upperneck 40.568 1.33405 -2.39602
head 22.4395 0.421017 -2.09984
rclavicle -1.34975e-013 -2.70347e-014
rhumerus -47.5303 8.79202 -88.7095
rradius 83.1238
rwrist 11.9408
rhand -6.59582 -1.3343
rfingers 7.12502
rthumb 19.2595 -30.4006
lclavicle -1.34975e-013 -2.70347e-014
lhumerus -59.113 -22.6629 98.1784
lradius 96.3015
lwrist -18.7664
lhand -14.5838 5.58725
lfingers 7.12502
lthumb 11.5661 35.2481
rfemur -1.72919 -7.58048 13.897
rtibia 73.4091
rfoot 14.582 -21.5732
rtoes -9.253
lfemur -27.879 1.18113 -33.1263
ltibia 41.2035
lfoot -4.09815 20.5894
ltoes 12.7329
106
root 12.0254 15.0835 -6.13057 -176.878 -25.7932 185.946
lowerback -0.284447 3.16587 -2.95221
upperback 0.637475 4.22774 -0.914941
thorax 0.668332 2.09038 0.742141
lowerneck -32.3181 3.40076 5.32679
upperneck 40.3857 1.4548 -2.38001
head 22.3159 0.475976 -2.04726
rclavicle 5.96354e-014 2.70347e-014
rhumerus -48.5273 7.80898 -88.3417
rradius 82.8415
rwrist 11.8811
rhand -6.56278 -1.53533
rfingers 7.12502
rthumb 19.2913 -30.5985
lclavicle 5.96354e-014 2.70347e-014
lhumerus -57.6812 -22.5475 98.2889
lradius 95.5043
lwrist -19.2366
lhand -14.7893 5.78208
lfingers 7.12502
lthumb 11.368 35.4539
rfemur -3.63832 -7.57209 13.0016
rtibia 76.5226
rfoot 13.2556 -21.8866
rtoes -9.31803
lfemur -26.7219 1.00821 -33.6875
ltibia 42.1415
lfoot -6.03385 21.9654
ltoes 13.3876
107
root 11.9358 14.9848 -6.36296 -176.882 -26.0332 185.406
lowerback 0.0624228 3.09157 -3.64857
upperback 0.842699 4.11386 -0.992035
thorax 0.645754 2.02362 1.03451
lowerneck -32.4126 3.47488 5.35097
upperneck 40.1992 1.58785 -2.3579
head 22.2154 0.541327 -1.99063
rclavicle -5.34731e-014 3.81667e-014
rhumerus -49.4843 6.86727 -87.965
rradius 82.5876
rwrist 11.7074
rhand -6.54685 -1.70831
rfingers 7.12502
rthumb 19.3066 -30.7699
lclavicle -5.34731e-014 3.81667e-014
lhumerus -56.2546 -22.4392 98.4004
lradius 94.8473
lwrist -19.7052
lhand -14.9878 5.88275
lfingers 7.12502
lthumb 11.1765 35.5651
rfemur -5.86741 -7.34693 12.2383
rtibia 79.4976
rfoot 11.9557 -22.1027
rtoes -9.65529
lfemur -25.7324 0.97501 -34.2428
ltibia 42.9845
lfoot -7.71136 23.1102
ltoes 13.6989
108
root 11.8462 14.8992 -6.58913 -176.754 -26.1931 184.899
lowerback 0.28111 3.02644 -4.3165
upperback 1.02672 4.01382 -1.07425
thorax 0.677451 1.96198 1.31347
lowerneck -32.5563 3.57171 5.42206
upperneck 39.9989 1.73585 -2.35012
head 22.1226 0.619215 -1.94513
rclavicle -3.598e-014 5.08889e-014
rhumerus -50.3712 5.97408 -87.6071
rradius 82.3407
rwrist 11.4828
rhand -6.5462 -1.80893
rfingers 7.12502
rthumb 19.3072 -30.8705
lclavicle -3.598e-014 5.08889e-014
lhumerus -54.8244 -22.331 98.4963
lradius 94.3338
lwrist -20.0961
lhand -15.1454 5.85648
lfingers 7.12502
lthumb 11.0245 35.547
rfemur -8.39425 -6.91404 11.6613
rtibia 82.2867
rfoot 10.7456 -22.2285
rtoes -10.1398
lfemur -24.9189 1.01735 -34.76
ltibia 43.7738
lfoot -9.12898 24.0663
ltoes 13.7252
